<?xml version="1.0" standalone="no"?>
<!DOCTYPE svg PUBLIC "-//W3C//DTD SVG 20010904//EN"
 "http://www.w3.org/TR/2001/REC-SVG-20010904/DTD/svg10.dtd">
<svg version="1.0" xmlns="http://www.w3.org/2000/svg"
 width="318.000000pt" height="168.000000pt" viewBox="0 0 318.000000 168.000000"
 preserveAspectRatio="xMidYMid meet">

<g transform="translate(0.000000,168.000000) scale(0.100000,-0.100000)"
fill="#000000" stroke="none">
<path d="M0 840 l0 -840 1590 0 1590 0 0 840 0 840 -1590 0 -1590 0 0 -840z
m1620 811 c0 -15 -10 -19 -52 -25 -80 -9 -88 -8 -88 13 0 25 12 29 83 30 49 1
57 -2 57 -18z m220 -6 l25 -14 -32 -2 c-18 -1 -39 -2 -45 -3 -7 -1 -14 7 -16
17 -4 21 32 23 68 2z m-456 -62 c-7 -40 -19 -61 -30 -50 -6 5 25 87 33 87 2 0
1 -17 -3 -37z m215 31 c21 -5 31 -12 31 -25 0 -17 -8 -19 -70 -19 -63 0 -70 2
-70 19 0 15 8 21 33 24 17 2 35 5 38 5 4 1 21 -1 38 -4z m211 -28 c0 -2 -7 -6
-15 -10 -8 -3 -15 -1 -15 4 0 6 7 10 15 10 8 0 15 -2 15 -4z m-200 -40 c0 -20
-6 -22 -77 -30 -58 -6 -63 -6 -63 13 0 25 12 29 83 30 43 1 57 -2 57 -13z
m160 -27 c0 -6 -4 -7 -10 -4 -5 3 -10 11 -10 16 0 6 5 7 10 4 6 -3 10 -11 10
-16z m-419 -42 c-8 -8 -11 -5 -11 9 0 27 14 41 18 19 2 -9 -1 -22 -7 -28z
m269 8 c0 -24 -2 -25 -70 -25 -63 0 -70 2 -70 19 0 21 19 27 98 30 39 1 42 -1
42 -24z m184 -4 c3 -5 -3 -11 -14 -14 -13 -3 -20 0 -20 9 0 15 26 19 34 5z
m-436 -48 c-6 -7 -14 -13 -19 -13 -13 0 -11 24 3 38 16 16 31 -7 16 -25z m232
-2 c0 -14 -10 -20 -37 -25 -67 -11 -103 -7 -103 9 0 21 35 34 93 34 39 1 47
-2 47 -18z m234 0 c15 -6 11 -9 -19 -18 -41 -13 -65 -8 -65 13 0 15 50 18 84
5z m-274 -55 c0 -20 -6 -22 -72 -30 -54 -7 -58 -6 -58 12 0 25 12 30 78 31 39
1 52 -3 52 -13z m221 -3 c28 -5 30 -7 14 -14 -36 -14 -85 -10 -85 6 0 16 19
19 71 8z m-221 -58 c0 -23 -3 -25 -49 -25 -27 0 -56 -3 -65 -6 -12 -5 -16 0
-16 19 0 24 4 26 48 30 26 2 55 4 65 5 12 1 17 -5 17 -23z m202 7 c25 -10 6
-35 -23 -30 -29 4 -40 38 -12 37 10 0 26 -3 35 -7z m511 -12 c-5 -19 -12 -21
-77 -18 -58 2 -71 6 -74 21 -3 15 6 17 76 17 76 0 80 -1 75 -20z m-1623 -20
c0 -17 -7 -20 -42 -22 -43 -1 -43 -1 -7 -5 30 -3 36 -8 32 -22 -3 -14 3 -20
26 -24 38 -8 43 -37 6 -37 -14 0 -24 -3 -24 -7 4 -24 -5 -32 -38 -36 -31 -3
-29 -4 15 -5 45 -2 52 -5 52 -22 0 -14 7 -20 21 -20 14 0 19 -5 17 -17 -3 -15
-14 -18 -68 -18 -46 0 -65 4 -65 13 0 7 -6 16 -13 21 -14 8 -42 57 -42 72 0 5
9 9 20 9 29 0 28 47 -2 52 -30 4 -34 26 -6 37 12 6 17 10 11 10 -7 1 -13 10
-13 21 0 18 7 20 60 20 53 0 60 -2 60 -20z m1345 3 c-2 -10 -7 -40 -10 -66 -5
-40 -11 -50 -32 -58 -33 -12 -52 3 -33 26 7 8 12 33 12 55 -1 33 3 43 21 50
34 14 45 12 42 -7z m-1142 -13 c5 -5 -5 -11 -23 -15 -34 -7 -57 5 -46 24 7 11
54 5 69 -9z m-406 -22 c-3 -7 -5 -2 -5 12 0 14 2 19 5 13 2 -7 2 -19 0 -25z
m1143 7 c0 -19 -9 -22 -82 -28 -56 -5 -58 -5 -58 19 0 23 3 24 70 24 56 0 70
-3 70 -15z m679 -12 c-6 -16 -10 -29 -10 -30 8 -28 -2 -33 -74 -33 -68 0 -75
2 -75 19 0 11 4 22 9 25 5 3 7 15 4 26 -5 19 0 20 76 20 l81 0 -11 -27z m-479
8 c0 -9 -23 -21 -40 -21 -4 0 -10 7 -14 15 -4 11 2 15 24 15 17 0 30 -4 30 -9z
m-949 -18 c28 -5 30 -7 14 -14 -36 -14 -85 -10 -85 6 0 16 19 19 71 8z m509
-13 c0 -11 -4 -20 -10 -20 -5 0 -10 9 -10 20 0 11 5 20 10 20 6 0 10 -9 10
-20z m245 -8 c15 -11 17 -32 3 -37 -7 -2 -39 -5 -70 -8 -55 -3 -58 -2 -58 19
0 20 6 23 48 27 26 2 52 4 57 5 6 1 15 -2 20 -6z m249 -11 c18 -7 16 -9 -14
-19 -49 -18 -70 -15 -70 8 0 16 6 20 33 19 17 0 41 -4 51 -8z m589 2 c-7 -2
-19 -2 -25 0 -7 3 -2 5 12 5 14 0 19 -2 13 -5z m-1969 -28 c-4 -8 -10 -15 -15
-15 -5 0 -9 7 -9 15 0 8 7 15 15 15 9 0 12 -6 9 -15z m386 5 c-19 -13 -30 -13
-30 0 0 6 10 10 23 10 18 0 19 -2 7 -10z m1420 -30 c0 -17 -7 -20 -47 -22
l-48 -1 43 -4 c37 -4 42 -7 42 -29 0 -23 -2 -24 -75 -24 -68 0 -75 2 -75 20 0
15 7 20 28 21 21 1 23 3 6 6 -21 4 -38 36 -26 47 3 3 38 6 79 6 66 0 73 -2 73
-20z m-692 -17 c3 -20 -1 -22 -60 -26 l-63 -3 71 -2 c70 -2 71 -2 66 -27 -4
-22 -1 -25 23 -25 20 0 26 -4 23 -17 -3 -15 -16 -19 -77 -21 -70 -3 -73 -2
-68 18 4 14 0 20 -13 20 -12 0 -19 11 -24 38 -9 59 -9 61 37 64 76 5 82 4 85
-19z m-1132 -61 c-13 -12 -17 8 -9 44 l8 39 3 -39 c2 -21 1 -41 -2 -44z m400
63 c-26 -20 -66 -19 -66 0 0 11 11 15 43 15 39 -1 41 -2 23 -15z m184 -10 c0
-19 5 -25 21 -25 14 0 19 -5 17 -17 -3 -15 -16 -19 -67 -21 -63 -3 -63 -3 -59
22 3 16 1 23 -8 19 -15 -6 -28 13 -20 32 4 11 22 15 61 15 52 0 55 -1 55 -25z
m264 8 c15 -10 -24 -22 -71 -22 -37 -1 -43 2 -43 20 0 20 3 21 52 15 28 -4 56
-10 62 -13z m515 1 c9 -8 -9 -16 -40 -17 -24 -2 -34 3 -37 14 -2 14 3 16 35
12 21 -3 40 -7 42 -9z m171 -4 c0 -11 -6 -20 -12 -21 -10 0 -10 -2 0 -6 14 -6
16 -26 3 -51 -5 -9 -12 -24 -14 -33 -3 -9 -17 -19 -31 -21 -20 -4 -26 -1 -26
13 0 10 7 22 16 27 11 6 13 11 5 16 -18 11 -13 26 12 36 15 6 17 9 6 9 -24 1
-31 29 -11 40 29 17 52 13 52 -9z m-623 -32 c-3 -7 -5 -2 -5 12 0 14 2 19 5
13 2 -7 2 -19 0 -25z m-532 -8 c-3 -5 -10 -10 -16 -10 -5 0 -9 5 -9 10 0 6 7
10 16 10 8 0 12 -4 9 -10z m474 0 c14 -1 14 -2 1 -9 -8 -5 -30 -12 -47 -16
-29 -6 -33 -4 -33 15 0 20 4 22 31 16 17 -3 39 -6 48 -6z m521 0 l25 -7 -28
-12 c-41 -16 -64 -14 -70 9 -4 16 0 20 21 19 15 -1 38 -4 52 -9z m-964 -25
c-3 -9 -11 -13 -16 -10 -8 5 -7 11 1 21 14 18 24 11 15 -11z m-379 -20 c-4 -8
-11 -15 -17 -15 -14 0 -13 27 3 33 16 6 21 1 14 -18z m890 3 c-3 -8 -6 -5 -6
6 -1 11 2 17 5 13 3 -3 4 -12 1 -19z m873 -8 c0 -15 -7 -20 -29 -20 -15 0 -48
-3 -73 -6 -37 -5 -46 -3 -52 11 -11 29 3 35 80 35 67 0 74 -2 74 -20z m-1150
-9 c0 -11 -4 -23 -10 -26 -5 -3 -10 -15 -10 -26 0 -17 -7 -19 -60 -19 -53 0
-60 2 -60 20 0 12 7 20 18 21 10 0 12 3 5 6 -7 2 -13 13 -13 24 0 17 8 19 65
19 58 0 65 -2 65 -19z m742 9 c26 0 21 -5 -13 -14 -20 -4 -29 -1 -33 10 -5 12
-2 15 10 10 8 -3 25 -6 36 -6z m568 6 c0 -3 -4 -8 -10 -11 -5 -3 -10 -1 -10 4
0 6 5 11 10 11 6 0 10 -2 10 -4z m-1542 -41 c-1 -1 -18 -6 -35 -10 -26 -5 -33
-3 -33 9 0 10 9 16 24 16 14 0 28 6 33 13 5 9 9 7 11 -6 2 -10 2 -20 0 -22z
m447 26 c-6 -4 -22 -11 -37 -15 -21 -5 -28 -3 -28 9 0 11 11 15 37 15 22 0 33
-4 28 -9z m73 -32 c-18 -12 -23 8 -6 28 12 15 13 15 16 -2 2 -10 -2 -21 -10
-26z m-728 11 c0 -15 -7 -20 -29 -20 -21 0 -28 -5 -27 -17 1 -14 -10 -19 -49
-24 l-50 -6 43 -1 c35 -2 42 -5 42 -22 0 -17 -7 -20 -47 -22 l-48 -2 48 -3
c43 -4 48 -7 45 -26 -2 -16 3 -23 20 -25 17 -3 21 -8 17 -23 -4 -10 -2 -19 3
-19 6 0 8 -9 5 -19 -4 -16 -11 -18 -45 -13 -22 2 -43 1 -47 -4 -11 -17 -61
-34 -96 -34 -37 0 -43 13 -25 55 7 17 9 17 9 3 1 -14 10 -18 41 -18 l40 0 -3
40 c-1 23 -7 40 -14 40 -17 0 -26 18 -16 33 4 6 8 19 9 27 1 8 2 27 3 42 1 19
7 27 24 30 14 2 23 11 25 26 3 20 9 22 63 22 52 0 59 -2 59 -20z m-208 -12
c-7 -7 -12 -8 -12 -2 0 14 12 26 19 19 2 -3 -1 -11 -7 -17z m1798 -13 c0 -26
0 -26 -77 -23 -64 2 -78 6 -81 20 -3 14 7 18 55 21 32 2 68 4 81 5 17 2 22 -3
22 -23z m-916 6 c3 -5 -14 -14 -39 -20 -59 -15 -65 -14 -65 9 0 17 7 20 49 20
28 0 52 -4 55 -9z m334 -8 c-3 -15 -16 -19 -76 -21 -67 -3 -72 -1 -72 18 0 18
6 20 76 20 66 0 75 -2 72 -17z m757 7 c3 -5 -1 -10 -9 -10 -8 0 -18 5 -21 10
-3 6 1 10 9 10 8 0 18 -4 21 -10z m-1015 -20 c0 -11 -2 -20 -4 -20 -2 0 -11
-3 -20 -6 -19 -7 -22 16 -4 34 18 18 28 15 28 -8z m435 10 c-3 -5 -13 -10 -21
-10 -8 0 -14 5 -14 10 0 6 9 10 21 10 11 0 17 -4 14 -10z m123 -12 c-2 -15
-11 -24 -25 -26 -25 -4 -31 16 -11 36 20 20 40 14 36 -10z m-1182 -3 c18 -14
17 -14 -13 -15 -23 0 -33 5 -33 15 0 19 21 19 46 0z m324 -35 c0 -18 -7 -20
-65 -20 -58 0 -65 2 -65 20 0 18 7 20 65 20 58 0 65 -2 65 -20z m512 -7 c2
-20 9 -29 26 -31 31 -5 22 -25 -14 -33 l-29 -7 33 -1 c26 -1 33 -5 30 -18 -3
-15 -16 -19 -76 -21 l-72 -3 0 46 c0 33 -4 45 -15 45 -8 0 -15 9 -15 19 0 21
18 27 87 30 38 1 42 -1 45 -26z m618 3 c0 -19 -6 -26 -27 -29 -17 -2 -10 -5
20 -6 26 0 47 -5 47 -11 0 -5 9 -10 19 -10 11 0 23 -4 26 -10 3 -5 -2 -10 -12
-10 -11 0 -24 -5 -31 -12 -9 -9 -12 -7 -12 10 0 21 -4 22 -75 22 -71 0 -102
13 -52 23 13 3 8 5 -15 6 -30 1 -38 5 -38 19 0 29 8 32 82 32 65 0 68 -1 68
-24z m-1411 5 c25 -16 1 -31 -48 -31 -40 0 -50 3 -54 20 -5 18 0 20 41 20 26
0 53 -4 61 -9z m48 -23 c-3 -7 -5 -2 -5 12 0 14 2 19 5 13 2 -7 2 -19 0 -25z
m438 22 c3 -5 0 -10 -9 -10 -8 0 -21 -3 -30 -6 -11 -4 -16 -1 -16 10 0 18 45
23 55 6z m535 1 c0 -8 -33 -21 -56 -21 -7 0 -14 7 -18 15 -4 12 3 15 34 15 22
0 40 -4 40 -9z m115 -20 c-7 -24 -45 -29 -45 -6 0 9 10 19 23 24 27 11 31 8
22 -18z m465 19 c-20 -13 -40 -13 -40 0 0 6 12 10 28 10 21 0 24 -2 12 -10z
m-1028 -40 c6 0 9 -20 6 -48 l-3 -48 53 4 c48 4 52 3 52 -17 0 -17 -6 -21 -32
-21 -25 0 -29 -3 -18 -10 8 -5 12 -10 7 -10 -4 0 6 -19 23 -42 l30 -41 -47
-28 -48 -27 -20 26 c-10 15 -35 42 -54 60 l-35 32 22 46 c12 25 27 42 32 39 6
-4 7 1 3 10 -3 10 0 21 8 26 9 6 10 9 2 9 -7 0 -11 14 -11 33 1 40 12 60 16
30 2 -13 8 -23 14 -23z m-302 -13 c0 -21 4 -23 32 -19 26 4 30 2 25 -12 -4
-10 -7 -33 -7 -52 0 -30 -3 -34 -27 -34 -16 0 -46 -9 -69 -19 l-40 -18 -21 38
c-24 44 -22 47 47 78 l45 20 -62 0 c-35 1 -63 3 -63 5 0 28 16 36 76 36 60 0
64 -1 64 -23z m-302 3 c26 0 33 -3 25 -11 -12 -12 -103 -26 -103 -16 0 19 15
37 27 33 8 -3 31 -6 51 -6z m72 -12 c0 -16 -3 -19 -11 -11 -6 6 -8 16 -5 22
11 17 16 13 16 -11z m404 7 c-4 -8 -10 -15 -15 -15 -5 0 -9 7 -9 15 0 8 7 15
15 15 9 0 12 -6 9 -15z m576 5 c-20 -13 -40 -13 -40 0 0 6 12 10 28 10 21 0
24 -2 12 -10z m193 -10 c42 0 44 -1 39 -25 -4 -24 -6 -25 -93 -25 -87 0 -89 1
-89 24 0 17 8 25 33 33 18 5 39 6 49 1 9 -4 37 -8 61 -8z m-283 -35 c0 -18 -5
-25 -20 -25 -20 0 -28 28 -13 43 15 16 33 6 33 -18z m-810 -5 c0 -17 -7 -20
-40 -20 -44 0 -58 25 -17 33 48 9 57 7 57 -13z m-526 -5 c-4 -8 -8 -15 -10
-15 -2 0 -4 7 -4 15 0 8 4 15 10 15 5 0 7 -7 4 -15z m364 -3 c2 -7 -3 -12 -12
-12 -9 0 -16 7 -16 16 0 17 22 14 28 -4z m1637 -2 c-3 -5 -10 -10 -16 -10 -5
0 -9 5 -9 10 0 6 7 10 16 10 8 0 12 -4 9 -10z m-1575 -29 c0 -5 -11 -12 -24
-15 -13 -3 -31 -9 -40 -12 -12 -4 -16 0 -16 15 0 18 6 21 40 21 22 0 40 -4 40
-9z m67 -11 c-1 -15 -8 -20 -29 -20 -17 0 -28 5 -28 13 0 19 10 27 36 27 17 0
22 -5 21 -20z m817 14 c40 -6 46 -10 46 -30 0 -19 -5 -24 -25 -24 -14 0 -25
-4 -25 -10 0 -5 -18 -10 -40 -10 -22 0 -40 -4 -40 -9 0 -12 -107 -44 -120 -36
-5 3 -10 15 -10 26 0 16 7 19 45 19 33 0 45 4 45 15 0 12 13 15 60 15 51 0 60
3 59 18 0 10 -3 12 -6 5 -2 -7 -18 -13 -34 -13 -22 0 -29 5 -29 20 0 22 6 23
74 14z m384 -16 c-3 -22 -9 -23 -90 -26 l-88 -4 0 26 0 26 91 0 c88 0 90 -1
87 -22z m209 6 c-3 -3 -12 -4 -19 -1 -8 3 -5 6 6 6 11 1 17 -2 13 -5z m-2081
-38 c-6 -25 7 -36 45 -36 12 0 19 -7 19 -20 0 -18 -7 -20 -75 -20 -73 0 -75 1
-75 25 0 20 -5 25 -25 25 -20 0 -25 5 -25 25 0 24 2 25 71 25 70 0 71 0 65
-24z m624 -13 c0 -16 -17 -17 -22 -2 -3 9 -9 9 -25 0 -31 -16 -63 -14 -63 5 0
12 11 15 55 13 38 -2 55 -7 55 -16z m930 -28 c0 -22 -4 -25 -35 -25 -27 0 -35
4 -35 18 0 25 9 32 42 32 23 0 28 -4 28 -25z m340 6 c0 -24 -26 -31 -112 -31
-66 0 -68 1 -68 25 0 25 1 25 90 25 81 0 90 -2 90 -19z m-1450 -15 c0 -13 -6
-27 -12 -29 -7 -3 4 -6 25 -6 33 -1 37 -4 37 -26 0 -24 -2 -25 -75 -25 -73 0
-75 1 -75 25 0 16 -6 25 -15 25 -9 0 -15 9 -15 24 0 21 5 25 38 29 89 9 92 9
92 -17z m-640 -7 c0 -11 -4 -17 -10 -14 -5 3 -10 13 -10 21 0 8 5 14 10 14 6
0 10 -9 10 -21z m444 6 c-4 -8 -8 -15 -10 -15 -2 0 -4 7 -4 15 0 8 4 15 10 15
5 0 7 -7 4 -15z m766 -13 c83 -39 150 -151 150 -250 0 -152 -107 -272 -243
-272 -101 0 -173 47 -225 145 -22 42 -27 63 -27 130 0 71 3 86 31 135 69 122
195 167 314 112z m540 -24 c-1 -7 -8 -35 -18 -63 -15 -45 -20 -50 -45 -47 -15
2 -27 7 -27 12 0 5 -3 15 -6 23 -3 10 4 17 23 22 15 4 22 10 16 12 -7 3 -13
16 -13 29 0 21 5 24 35 24 22 0 35 -5 35 -12z m340 -12 c0 -19 -6 -24 -37 -30
-21 -3 -61 -6 -89 -6 -45 0 -52 3 -57 22 -3 12 -4 25 -1 30 3 4 45 8 95 8 87
0 89 -1 89 -24z m322 -7 c-4 -26 -8 -30 -31 -27 -49 6 -36 57 15 58 17 0 20
-5 16 -31z m-2212 -4 c0 -20 5 -25 25 -25 18 0 25 -5 25 -20 0 -18 -7 -20 -75
-20 -73 0 -75 1 -75 25 0 18 -5 25 -20 25 -13 0 -20 7 -20 20 0 18 7 20 70 20
68 0 70 -1 70 -25z m250 10 c0 -8 -4 -15 -9 -15 -5 0 -23 -3 -40 -6 -27 -6
-31 -4 -31 15 0 18 6 21 40 21 29 0 40 -4 40 -15z m1111 -11 c-41 -17 -38 -17
-43 4 -4 15 1 17 35 13 l40 -3 -32 -14z m1229 2 c0 -32 -15 -36 -121 -36 l-89
0 0 30 0 30 105 0 c104 0 105 0 105 -24z m266 13 c-22 -5 -45 -14 -53 -20 -10
-9 -13 -7 -13 10 0 19 5 21 53 20 l52 -1 -39 -9z m-2215 -61 c-1 -7 -10 -43
-20 -80 l-16 -68 -38 0 -37 0 6 43 c5 39 31 132 41 150 7 12 68 -31 64 -45z
m-841 15 c0 -5 -5 -15 -10 -23 -8 -12 -10 -11 -10 8 0 12 5 22 10 22 6 0 10
-3 10 -7z m455 -3 c3 -5 4 -14 0 -20 -8 -13 -35 -1 -35 16 0 16 26 19 35 4z
m255 -25 c0 -24 -2 -25 -74 -25 -75 0 -93 8 -82 35 4 11 24 15 81 15 73 0 75
-1 75 -25z m1370 1 c0 -21 -6 -24 -52 -30 -72 -8 -138 -8 -138 2 0 4 -3 17 -6
30 -6 22 -5 22 95 22 99 0 101 0 101 -24z m229 20 c-12 -10 -59 -15 -59 -6 0
5 14 10 32 10 17 0 29 -2 27 -4z m103 -31 c-2 -14 -13 -26 -26 -28 -17 -3 -15
-5 7 -6 23 -1 27 -5 27 -30 0 -25 -3 -28 -25 -23 -31 5 -34 10 -40 58 -5 45 7
63 39 57 18 -4 22 -10 18 -28z m-822 18 c-8 -3 -23 -10 -32 -15 -13 -6 -18 -5
-18 7 0 10 10 15 33 14 17 0 25 -3 17 -6z m1198 -25 l3 -28 -105 0 -106 0 0
30 0 31 103 -3 102 -3 3 -27z m269 18 c-20 -8 -44 -19 -52 -26 -12 -10 -15 -9
-15 8 0 21 18 27 80 30 19 1 16 -2 -13 -12z m-3054 -36 c-3 -11 -9 -20 -14
-20 -5 0 -9 9 -9 20 0 11 6 20 14 20 9 0 12 -7 9 -20z m267 0 c0 -14 -7 -20
-22 -21 -22 -1 -22 -1 2 -8 15 -4 26 -15 28 -29 3 -21 0 -22 -78 -22 l-82 0 4
25 c3 14 1 25 -3 25 -5 0 -9 11 -9 25 0 25 1 25 80 25 73 0 80 -2 80 -20z
m175 11 c3 -5 1 -12 -5 -16 -5 -3 -10 1 -10 9 0 18 6 21 15 7z m215 -36 c0
-24 -2 -25 -70 -25 -68 0 -70 1 -70 25 0 24 2 25 70 25 68 0 70 -1 70 -25z
m1048 19 c15 -4 22 -14 22 -30 0 -21 -5 -24 -35 -24 -32 0 -35 2 -35 30 0 31
7 34 48 24z m-128 -13 c0 -9 -24 -21 -41 -21 -5 0 -9 7 -9 15 0 9 9 15 25 15
14 0 25 -4 25 -9z m502 -13 c4 -7 8 -16 8 -19 0 -8 -80 -19 -141 -19 -39 0
-49 4 -54 20 -3 11 -3 25 1 31 9 15 175 4 186 -13z m218 18 c0 -2 -9 -6 -20
-9 -11 -3 -20 -1 -20 4 0 5 9 9 20 9 11 0 20 -2 20 -4z m498 -32 c4 -28 -19
-34 -125 -34 l-83 0 0 30 0 31 103 -3 c95 -3 102 -4 105 -24z m240 12 c-2 -1
-11 -8 -20 -15 -16 -12 -18 -11 -18 7 0 15 5 19 20 15 12 -3 19 -6 18 -7z
m-3030 -13 c-5 -25 -28 -28 -28 -4 0 12 6 21 16 21 9 0 14 -7 12 -17z m439
-58 c-5 -62 -4 -60 -34 -69 -19 -6 -23 -3 -23 13 0 16 6 21 25 21 21 0 25 5
24 23 -3 33 0 67 6 67 3 0 4 -25 2 -55z m263 25 c0 -11 -6 -20 -12 -21 -10 0
-10 -2 0 -6 6 -2 12 -16 12 -29 0 -23 -2 -24 -79 -24 l-79 0 0 50 0 50 79 0
c72 0 79 -2 79 -20z m876 1 c-10 -16 -46 -20 -46 -5 0 8 10 14 26 14 14 0 23
-4 20 -9z m136 -21 c-2 -16 -8 -30 -13 -30 -5 0 -9 -14 -9 -31 0 -27 -3 -30
-27 -27 -22 2 -29 9 -31 31 -3 22 0 27 20 27 13 0 18 4 12 8 -14 9 -24 38 -17
46 4 3 21 6 38 6 29 0 31 -2 27 -30z m-1722 -5 c0 -14 -4 -25 -9 -25 -10 0
-21 36 -13 44 12 13 22 5 22 -19z m2031 15 c32 0 39 -4 39 -19 0 -24 -26 -31
-117 -31 -71 0 -73 1 -73 24 0 31 14 37 69 31 24 -3 61 -5 82 -5z m409 -25 c0
-23 -4 -33 -12 -31 -7 3 -25 7 -40 10 -21 5 -28 12 -28 31 0 22 4 25 40 25 39
0 40 -1 40 -35z m-2170 6 c0 -16 -10 -20 -65 -26 -75 -8 -95 -3 -95 25 0 18 6
20 80 20 72 0 80 -2 80 -19z m2566 -18 c5 -29 -17 -35 -126 -31 -85 3 -85 3
-88 31 l-3 28 107 -3 c102 -3 107 -4 110 -25z m209 9 c-3 -3 -11 0 -18 7 -9
10 -8 11 6 5 10 -3 15 -9 12 -12z m-1540 -29 c-12 -56 -48 -164 -56 -169 -8
-5 -25 2 -57 24 -12 8 -11 18 2 63 8 30 18 66 21 82 5 25 9 27 50 27 44 0 45
-1 40 -27z m84 13 c-2 -2 -14 -9 -26 -15 -19 -10 -23 -9 -23 4 0 10 9 15 27
15 14 0 24 -2 22 -4z m-1605 -21 c-4 -8 -8 -15 -10 -15 -2 0 -4 7 -4 15 0 8 4
15 10 15 5 0 7 -7 4 -15z m234 -12 c-3 -15 -16 -19 -76 -21 -67 -3 -72 -1 -72
18 0 18 6 20 76 20 66 0 75 -2 72 -17z m1824 0 c20 -12 4 -31 -29 -37 -53 -8
-153 -8 -153 2 0 4 -3 18 -7 31 l-6 24 94 -8 c52 -4 97 -9 101 -12z m377 8 c9
-6 11 -18 7 -34 -4 -19 -11 -24 -26 -20 -27 7 -42 27 -34 47 7 17 31 21 53 7z
m-1880 -17 c11 -10 -12 -34 -33 -34 -38 0 -56 10 -56 31 0 17 5 18 43 13 23
-4 44 -8 46 -10z m201 -14 c0 -13 -7 -20 -20 -20 -13 0 -20 7 -20 20 0 13 7
20 20 20 13 0 20 -7 20 -20z m1991 10 l69 0 0 -30 0 -30 -105 0 -105 0 0 28
c0 37 9 45 44 38 16 -3 59 -6 97 -6z m339 -5 c0 -2 -13 -11 -30 -20 -29 -15
-30 -15 -30 5 0 16 7 20 30 20 17 0 30 -2 30 -5z m-3080 -19 c0 -8 -5 -18 -10
-21 -6 -3 -10 3 -10 14 0 12 5 21 10 21 6 0 10 -6 10 -14z m450 -1 c6 -8 15
-14 18 -13 27 3 42 -5 42 -21 0 -26 -10 -31 -37 -20 -14 5 -23 17 -23 30 0 18
-2 19 -15 9 -13 -10 -15 -9 -15 9 0 24 12 27 30 6z m-200 -20 c0 -24 -2 -25
-75 -25 -73 0 -75 1 -75 25 0 24 2 25 75 25 73 0 75 -1 75 -25z m1460 9 c13
-13 2 -44 -14 -44 -18 0 -36 21 -36 42 0 19 32 20 50 2z m302 -10 c41 -6 44
-9 40 -30 -4 -23 -8 -24 -92 -24 -90 0 -100 4 -100 46 0 15 70 19 152 8z m268
-5 c0 -6 -24 -19 -36 -19 -2 0 -4 6 -4 14 0 9 9 14 20 13 11 -1 20 -4 20 -8z
m138 5 c17 -5 22 -13 20 -35 -1 -16 -7 -29 -13 -29 -21 0 -49 27 -50 49 -2 22
5 25 43 15z m-1658 -24 c0 -18 -7 -20 -55 -20 -48 0 -55 2 -55 20 0 18 7 20
55 20 48 0 55 -2 55 -20z m-302 -35 c2 -25 1 -27 -8 -13 -8 13 -19 16 -40 11
-26 -5 -30 -3 -30 16 0 19 5 22 38 19 33 -3 37 -6 40 -33z m2354 16 c4 -3 5
-16 2 -29 -6 -21 -11 -22 -105 -22 -96 0 -99 1 -105 24 -3 14 -3 29 0 34 6 10
196 4 208 -7z m-2602 -11 c0 -21 -19 -26 -90 -21 -49 3 -61 8 -54 26 5 11 22
15 75 15 62 0 69 -2 69 -20z m1498 -28 c-3 -27 0 -36 14 -40 20 -5 23 -19 9
-41 -8 -12 -15 -13 -34 -4 -29 14 -42 52 -20 60 13 5 13 7 -1 15 -15 9 -22 39
-10 50 3 3 14 3 26 1 16 -5 19 -12 16 -41z m1362 40 c0 -6 -33 -31 -42 -32 -5
0 -8 8 -8 19 0 13 7 19 25 19 14 0 25 -3 25 -6z m-2148 -85 c40 -41 40 -37 2
-95 -11 -17 -124 107 -124 134 0 7 12 20 28 28 25 14 28 14 42 -7 8 -12 31
-39 52 -60z m-204 49 c-3 -19 -11 -21 -80 -24 -72 -3 -78 -1 -78 17 0 17 8 20
48 23 102 8 113 6 110 -16z m1268 4 c50 0 54 -2 54 -24 0 -22 -5 -24 -52 -28
-91 -5 -126 1 -134 24 -8 26 12 40 50 33 16 -3 53 -5 82 -5z m294 2 c0 -11
-37 -32 -44 -25 -15 15 -4 33 19 33 14 0 25 -3 25 -8z m126 2 c16 -4 19 -12
16 -35 -2 -16 -7 -29 -10 -29 -14 0 -42 35 -42 52 0 19 4 21 36 12z m-806 -11
c0 -5 -11 -13 -25 -20 -20 -9 -25 -8 -25 2 0 12 14 19 43 24 4 0 7 -2 7 -6z
m1129 -29 c59 -7 61 -8 61 -35 0 -28 -1 -29 -52 -29 -29 0 -77 3 -105 6 -50 6
-53 8 -53 35 0 27 2 29 44 29 23 0 71 -3 105 -6z m322 -24 c-30 -26 -51 -25
-51 0 0 17 7 20 38 20 l37 -1 -24 -19z m-961 -35 c0 -25 0 -25 -94 -25 -84 0
-94 2 -99 19 -3 11 -2 22 1 25 3 3 47 6 99 6 93 0 93 0 93 -25z m350 16 c21
-6 24 -12 22 -36 -2 -17 -5 -31 -7 -33 -2 -2 -19 4 -39 12 -28 12 -36 21 -36
40 0 27 11 31 60 17z m-1157 -66 l17 -36 -37 -15 c-20 -9 -61 -18 -90 -21
l-53 -6 0 42 c0 39 1 41 33 42 17 0 48 7 67 14 19 7 38 14 41 14 3 1 13 -15
22 -34z m1495 25 l82 0 0 -30 0 -30 -105 0 -105 0 0 36 c0 33 2 36 23 30 12
-3 59 -6 105 -6z"/>
<path d="M1075 661 c-57 -26 -96 -72 -111 -130 -11 -43 -10 -59 5 -121 27
-107 97 -172 186 -172 91 0 166 65 185 159 13 61 7 99 -25 163 -28 54 -58 84
-107 105 -49 20 -84 19 -133 -4z"/>
</g>
</svg>
